<svg xmlns="http://www.w3.org/2000/svg" xmlns:xlink="http://www.w3.org/1999/xlink" width="36.26" height="50.601" viewBox="0 0 36.26 50.601">
  <defs>
    <clipPath id="clip-path">
      <rect id="Rectangle_236" data-name="Rectangle 236" width="36.26" height="50.601" transform="translate(0)" fill="rgba(0,0,0,0)"/>
    </clipPath>
    <clipPath id="clip-path-2">
      <rect id="Rectangle_220" data-name="Rectangle 220" width="18.488" height="16.12" transform="translate(0 0)" fill="#eb682c"/>
    </clipPath>
  </defs>
  <g id="Group_11264" data-name="Group 11264" transform="translate(-1452.792 -2324.836)">
    <g id="Group_2670" data-name="Group 2670" transform="translate(1452.792 2324.836)">
      <circle id="Ellipse_4" data-name="Ellipse 4" cx="13.5" cy="13.5" r="13.5" transform="translate(4.712 5.163)" fill="#fff"/>
      <g id="Group_2652" data-name="Group 2652" transform="translate(0)" clip-path="url(#clip-path)">
        <path id="Path_91" data-name="Path 91" d="M14.719,0a6.7,6.7,0,0,1,1.376.444,4.2,4.2,0,0,0,4.088,0A3.776,3.776,0,0,1,25.2,1.788a4.338,4.338,0,0,0,3.6,2.051A3.783,3.783,0,0,1,32.416,7.5a4.253,4.253,0,0,0,2,3.511,3.782,3.782,0,0,1,1.379,5.095,4.014,4.014,0,0,0,.032,4.028A4.061,4.061,0,0,1,34.38,25.3a3.569,3.569,0,0,0-1.934,3.337A3.948,3.948,0,0,1,28.781,32.4a4.238,4.238,0,0,0-3.654,2.142,3.835,3.835,0,0,1-4.817,1.315c-.335-.146-.673-.287-1.01-.43a3.37,3.37,0,0,0-2.961.267,4.015,4.015,0,0,1-2.813.421,3.746,3.746,0,0,1-2.345-1.5c-.218-.316-.455-.62-.69-.924a3.384,3.384,0,0,0-2.7-1.246A3.936,3.936,0,0,1,4.36,30.418a2.806,2.806,0,0,1-.45-1.277A4.7,4.7,0,0,0,1.452,24.9,3.765,3.765,0,0,1,.279,20.61a4.91,4.91,0,0,0,.007-5,3.765,3.765,0,0,1,1.085-4.241,2.666,2.666,0,0,1,.352-.263A4.216,4.216,0,0,0,3.882,7.348,3.824,3.824,0,0,1,7.206,3.859a3.718,3.718,0,0,1,.436-.051A3.842,3.842,0,0,0,11.034,1.83,4.066,4.066,0,0,1,14.719,0M5.14,18.062A13,13,0,1,0,18.227,5.1,13.013,13.013,0,0,0,5.14,18.062" transform="translate(0 0)"/>
        <path id="Path_92" data-name="Path 92" d="M44.665,80.672a5.787,5.787,0,0,0,4.5-1.047,16.218,16.218,0,0,0,1.6-1.709,4.833,4.833,0,0,1,.986-.823c.349-.2.6-.089.748.369,1.086,3.417,2.2,6.825,3.307,10.235.158.487.337.97.447,1.469.05.226.04.607-.093.7a.912.912,0,0,1-.756.013c-.9-.4-1.783-.85-2.67-1.285s-1.77-.879-2.659-1.311c-.551-.268-.708-.217-1,.336-.855,1.618-1.7,3.242-2.56,4.856-.191.357-.356.92-.839.785-.28-.078-.518-.569-.637-.921-.673-1.974-1.307-3.961-1.947-5.947A1.07,1.07,0,0,1,43,85.81c.536-1.707,1.1-3.406,1.661-5.138" transform="translate(-23.826 -42.676)"/>
        <path id="Path_93" data-name="Path 93" d="M24.493,80.082c-.676,2.074-1.345,4.125-2.011,6.177q-.738,2.271-1.472,4.542a1.068,1.068,0,0,1-.108.309c-.195.263-.409.512-.616.766-.233-.212-.543-.381-.686-.641-.886-1.621-1.735-3.262-2.6-4.9-.4-.756-.492-.786-1.274-.4-1.64.81-3.274,1.633-4.928,2.415a3.111,3.111,0,0,1-.974.114A2.873,2.873,0,0,1,9.8,87.53c1.092-3.434,2.211-6.859,3.324-10.286a1.518,1.518,0,0,1,.1-.2,1.378,1.378,0,0,1,1.264.535c.192.245.382.492.562.745a5.737,5.737,0,0,0,7.119,1.908c1.275-.583,1.481-.6,2.33-.154" transform="translate(-5.411 -42.703)"/>
      </g>
    </g>
    <g id="Group_2653" data-name="Group 2653" transform="translate(1472.601 2331.562) rotate(60)">
      <g id="Group_26" data-name="Group 26" transform="translate(0 0)" clip-path="url(#clip-path-2)">
        <path id="Path_86" data-name="Path 86" d="M10.866.008c-.244,0-.49-.016-.733,0A3.236,3.236,0,0,0,7.7,1.331a.155.155,0,0,0,0,.135.152.152,0,0,0,.11.073c.366.011.733.011,1.1.024a1.363,1.363,0,0,1,.281.06.2.2,0,0,1,.1.182.546.546,0,0,1-.03.141c-.079.152-.163.3-.249.448Q7.4,5.186,5.784,7.978c-.085.148-.172.295-.266.438a.227.227,0,0,1-.41,0c-.106-.164-.206-.332-.3-.5Q3.85,6.271,2.9,4.622C2.774,4.41,2.653,4.2,2.511,4A3.288,3.288,0,0,0,.484,2.655C.331,2.622.159,2.522,0,2.666a.652.652,0,0,0,.154.4Q2.244,6.682,4.332,10.3c.281.486.567.97.852,1.453a.147.147,0,0,0,.243.01c.081-.122.162-.244.235-.37Q6.526,9.9,7.385,8.409,9.6,4.571,11.816.731c.1-.168.17-.349.25-.525.025-.054-.045-.158-.106-.167A2.342,2.342,0,0,0,11.672,0C11.4,0,11.134,0,10.866,0Z" transform="translate(6.417 4.277)" fill="#eb682c"/>
        <path id="Path_87" data-name="Path 87" d="M5.269,0Q2.925,0,.58,0A3.876,3.876,0,0,0,.073.043.131.131,0,0,0,0,.15.945.945,0,0,0,.1.42c.338.594.68,1.186,1.021,1.778q2.616,4.536,5.235,9.071c.109.188.236.366.361.545.032.046.089.037.133,0,.018-.016.043-.028.054-.048.3-.506.614-1,.877-1.521a3.468,3.468,0,0,0,.184-2.7.962.962,0,0,0-.111-.188.132.132,0,0,0-.191-.015,2.82,2.82,0,0,0-.353.552c-.132.2-.265.407-.4.607a.179.179,0,0,1-.256,0c-.111-.159-.226-.317-.323-.485Q5.35,6.332,4.382,4.65c-.44-.761-.882-1.52-1.318-2.283a5.653,5.653,0,0,1-.248-.527.206.206,0,0,1,.132-.23,2.4,2.4,0,0,1,.36-.048c.391-.007.781,0,1.172,0,1.148,0,2.3-.007,3.443,0A3.243,3.243,0,0,0,9.6,1.089a3.211,3.211,0,0,0,.978-.871.152.152,0,0,0,.008-.133A.154.154,0,0,0,10.47.015C10.251,0,10.031,0,9.812,0H5.269" transform="translate(0 4.276)" fill="#eb682c"/>
        <path id="Path_88" data-name="Path 88" d="M6.719,0Q3.789,0,.858,0C.614,0,.37.014.127.025A.164.164,0,0,0,.014.251a10.8,10.8,0,0,0,1.008,1.7A3.224,3.224,0,0,0,3.388,3.241c.021,0,.075-.079.067-.109a1.172,1.172,0,0,0-.11-.265c-.153-.278-.314-.551-.467-.829a1.208,1.208,0,0,1-.071-.206A.2.2,0,0,1,2.942,1.6c.169-.018.339-.04.508-.04.806,0,1.612,0,2.418,0H9.9c.171,0,.342,0,.513.007.329.013.42.184.247.488-.545.954-1.1,1.9-1.645,2.856-.207.36-.406.724-.623,1.078a3.8,3.8,0,0,0-.428,2.617,2.217,2.217,0,0,0,.107.349c.036.114.061.25.212.255.112,0,.153-.106.2-.189q1.376-2.377,2.751-4.754Q12.276,2.462,13.317.652c.085-.147.158-.3.235-.453A.142.142,0,0,0,13.456.03C13.238.019,13.019,0,12.8,0Q9.759,0,6.719,0" transform="translate(2.483 0)" fill="#eb682c"/>
      </g>
    </g>
  </g>
</svg>
