<svg xmlns="http://www.w3.org/2000/svg" width="56.443" height="43.449" viewBox="0 0 56.443 43.449">
  <g id="Group_11265" data-name="Group 11265" transform="translate(-1241.608 -2321.775)">
    <path id="Path_89" data-name="Path 89" d="M0,5.693,24.757,21.8l-4.821,3.267.12.534c2.941,0,5.886-.08,8.822.044a6.669,6.669,0,0,1,3,.945,38.494,38.494,0,0,1,5.011,3.473c2.168,1.811,2.948,4.386,3.539,7.07a7.885,7.885,0,0,0,8.477,6.3,8.084,8.084,0,1,0-2.245-15.972c-5.482,1.268-9.152-1.805-12.973-4.688-.994-.75-.535-1.692.336-2.353,3.928-2.978,7.8-5.64,13.312-4.312,4.128.995,8.132-2.254,8.913-6.458A8.08,8.08,0,0,0,50.358.258C46.1-.811,41.3,1.517,40.641,5.769c-.9,5.784-4.694,8.769-9.16,11.4a2.552,2.552,0,0,1-2.126.032c-4.985-2.669-9.824-5.626-14.893-8.117A89.472,89.472,0,0,0,3.356,4.85c-.955-.32-2.168.132-3.263.229L0,5.693M42.849,35.387a5.466,5.466,0,1,1,10.933-.059,5.466,5.466,0,0,1-10.933.059M42.825,8.066a5.457,5.457,0,1,1,5.3,5.542,5.545,5.545,0,0,1-5.3-5.542" transform="translate(1241.607 2321.775)"/>
    <path id="Path_90" data-name="Path 90" d="M70.29,56.233q5.287,0,10.573,0c.44,0,.88-.023,1.319-.043a.3.3,0,0,0,.2-.408,19.455,19.455,0,0,0-1.819-3.058A5.815,5.815,0,0,0,76.3,50.386c-.038,0-.136.143-.122.2a2.12,2.12,0,0,0,.2.478c.276.5.566.995.842,1.5a2.188,2.188,0,0,1,.129.371.363.363,0,0,1-.243.41c-.3.032-.611.071-.917.073-1.454.008-2.907,0-4.361,0H64.555c-.308,0-.617,0-.925-.012-.593-.023-.758-.333-.446-.881.983-1.721,1.978-3.435,2.967-5.152.374-.648.734-1.306,1.124-1.944a6.853,6.853,0,0,0,.772-4.721,4,4,0,0,0-.194-.63c-.065-.206-.111-.451-.382-.46-.2-.007-.275.191-.363.342q-2.481,4.288-4.962,8.576-1.884,3.26-3.761,6.524c-.153.266-.285.543-.423.817a.256.256,0,0,0,.171.305c.395.021.789.052,1.184.052q5.485.006,10.97,0" transform="translate(1190.418 2300.44)" fill="#e8672d"/>
  </g>
</svg>
