<svg xmlns="http://www.w3.org/2000/svg" width="43.974" height="51.834" viewBox="0 0 43.974 51.834">
  <g id="Group_11266" data-name="Group 11266" transform="translate(-1039.982 -2317.583)">
    <ellipse id="Ellipse_5" data-name="Ellipse 5" cx="12.5" cy="12" rx="12.5" ry="12" transform="translate(1041.998 2336)" fill="#fff"/>
    <path id="Path_94" data-name="Path 94" d="M2.88,9.814c2.38-.356,4.675-.571,6.91-1.061a22.428,22.428,0,0,0,11.5-6.042A33.915,33.915,0,0,0,23.48,0a1.965,1.965,0,0,1,.2.24c2.2,3.554,5.51,5.683,9.264,7.234A31.12,31.12,0,0,0,43.286,9.614c.219.012.438.032.667.049,0,1.451.051,2.871-.009,4.286a56.483,56.483,0,0,1-2.373,14.4c-2.843,9.179-7.758,16.9-15.911,22.252-2.55,1.674-1.8,1.595-4.431.01a31.635,31.635,0,0,1-6.771-5.749,1.461,1.461,0,0,0-.864-.431c-5.706-.484-9.911-3.262-12.249-8.465C-.985,30.783-.236,25.811,3.18,21.262a1.525,1.525,0,0,0,.342-1.148c-.244-3.242-.435-6.488-.64-9.733-.014-.219,0-.44,0-.567M22.088,21.425c-.2-.153-.338-.266-.483-.375-3.87-2.889-8.056-3.442-12.383-1.3a10.971,10.971,0,0,0-6.46,10.614A10.933,10.933,0,0,0,9.845,40.838a10.923,10.923,0,0,0,12.487-2.264,11.092,11.092,0,0,0,3.151-11.765,1.166,1.166,0,0,1,.067-.879l.464-.626c1.563-2.108,3.339-4.44,5.109-6.777a1.444,1.444,0,0,0,.2-1.6,1.464,1.464,0,0,0-1.442-.835c-.732.006-1.465.026-2.2,0a2.176,2.176,0,0,0-1.9.886c-1.2,1.483-2.44,2.939-3.7,4.451" transform="translate(1039.982 2317.583)"/>
    <path id="Path_96" data-name="Path 96" d="M13.194,6.364q-5.755,0-11.509,0c-.479,0-.957-.025-1.436-.047a.323.323,0,0,1-.221-.444,21.179,21.179,0,0,1,1.98-3.329A6.33,6.33,0,0,1,6.653,0c.041,0,.148.155.132.214a2.307,2.307,0,0,1-.216.521c-.3.545-.616,1.083-.916,1.628a2.383,2.383,0,0,0-.14.4.4.4,0,0,0,.265.446c.332.035.665.078,1,.079,1.582.008,3.165,0,4.747,0,2.638,0,4.931-.009,7.622.086a30.438,30.438,0,0,1,3.938.331c1.845.192,3.312,1.095,3.526,2.259a.279.279,0,0,1-.186.332c-.429.023-.859.056-1.289.057q-5.971.007-11.941,0" transform="matrix(0.588, -0.809, 0.809, 0.588, 1048.362, 2353.948)" fill="#e8672d"/>
  </g>
</svg>
