<svg xmlns="http://www.w3.org/2000/svg" xmlns:xlink="http://www.w3.org/1999/xlink" width="32.386" height="44.956" viewBox="0 0 32.386 44.956">
  <defs>
    <clipPath id="clip-path">
      <rect id="Rectangle_238" data-name="Rectangle 238" width="32.386" height="44.956" fill="none"/>
    </clipPath>
    <clipPath id="clip-path-2">
      <rect id="Rectangle_220" data-name="Rectangle 220" width="11.543" height="10.065" transform="translate(0 0)" fill="#eb682c"/>
    </clipPath>
  </defs>
  <g id="Group_11267" data-name="Group 11267" transform="translate(-839.444 -2321.021)">
    <g id="Group_2661" data-name="Group 2661" transform="translate(839.444 2321.021)">
      <g id="Group_2660" data-name="Group 2660" transform="translate(0)" clip-path="url(#clip-path)">
        <path id="Path_100" data-name="Path 100" d="M.609,0H23.423a.609.609,0,0,1,.609.609V.647q0,3.432,0,6.864c0,.733.081.81.823.811q3.458,0,6.917,0h.006a.609.609,0,0,1,.609.609V44.347a.609.609,0,0,1-.609.609H.609A.609.609,0,0,1,0,44.347V.609A.609.609,0,0,1,.609,0M16.3,23.852h.789q3.4-.013,6.794-.026c.93,0,1.862.018,2.791-.016.164-.006.32-.232.479-.357a3.177,3.177,0,0,0-.44-.434c-.084-.058-.239-.013-.362-.013H22.509q-4.564,0-9.129,0c-1.158,0-2.316.02-3.474.02-1.318,0-2.637-.028-3.954,0-.185,0-.363.274-.544.421.19.136.368.361.573.389a9.659,9.659,0,0,0,1.312.014H16.3m.035-6.011H6.263c-.141,0-.313-.047-.414.016a2.656,2.656,0,0,0-.44.434,2.878,2.878,0,0,0,.435.38c.092.054.24.012.363.012H26.355c.123,0,.271.041.364-.013a2.86,2.86,0,0,0,.436-.375,2.254,2.254,0,0,0-.435-.436c-.12-.069-.309-.019-.467-.019H16.337m-.08-4.322q5.016,0,10.031,0c.344,0,.86.135.845-.423-.014-.539-.525-.409-.871-.409q-10-.008-20.01,0a1.14,1.14,0,0,0-.517.044.623.623,0,0,0-.3.42c-.007.113.182.281.321.346a1.168,1.168,0,0,0,.469.027l10.031,0M12.271,8.353H18.29c.141,0,.308.041.416-.02.147-.083.341-.242.346-.375s-.176-.308-.317-.4c-.1-.066-.273-.032-.414-.032q-6.072,0-12.144,0a1,1,0,0,0-.465.045.556.556,0,0,0-.28.381.563.563,0,0,0,.3.367,1.086,1.086,0,0,0,.467.032h6.072" transform="translate(0 0)"/>
        <path id="Path_101" data-name="Path 101" d="M92.271,9.478V2.8l6.68,6.678Z" transform="translate(-67.374 -2.044)"/>
      </g>
    </g>
    <ellipse id="Ellipse_2" data-name="Ellipse 2" cx="7.901" cy="7.901" rx="7.901" ry="7.901" transform="translate(847.736 2348.345)" fill="#fff"/>
    <g id="Group_2662" data-name="Group 2662" transform="translate(861.563 2360.402) rotate(180)">
      <g id="Group_26" data-name="Group 26" transform="translate(0 0)" clip-path="url(#clip-path-2)">
        <path id="Path_86" data-name="Path 86" d="M6.784.005c-.152,0-.306-.01-.457,0A2.021,2.021,0,0,0,4.81.831a.1.1,0,0,0,0,.084.1.1,0,0,0,.069.045c.229.007.457.007.686.015a.851.851,0,0,1,.176.038.127.127,0,0,1,.061.114.341.341,0,0,1-.019.088c-.049.095-.1.187-.155.28L3.611,4.981c-.053.092-.108.184-.166.273a.141.141,0,0,1-.256,0c-.066-.1-.129-.207-.19-.313Q2.4,3.915,1.808,2.886c-.076-.132-.152-.265-.241-.389A2.053,2.053,0,0,0,.3,1.658c-.1-.021-.2-.083-.3.007a.407.407,0,0,0,.1.25Q1.4,4.172,2.7,6.43c.175.3.354.605.532.907a.092.092,0,0,0,.152.006c.05-.076.1-.152.147-.231q.539-.93,1.075-1.862Q5.994,2.854,7.377.457c.06-.1.106-.218.156-.328.015-.033-.028-.1-.066-.1A1.462,1.462,0,0,0,7.287,0c-.168,0-.336,0-.5,0Z" transform="translate(4.006 2.671)" fill="#eb682c"/>
        <path id="Path_87" data-name="Path 87" d="M3.29,0Q1.826,0,.362,0A2.42,2.42,0,0,0,.046.027.082.082,0,0,0,0,.093.59.59,0,0,0,.061.262C.272.633.486,1,.7,1.372Q2.332,4.2,3.967,7.036c.068.118.147.229.226.34.02.029.055.023.083,0,.011-.01.027-.018.034-.03.184-.316.384-.624.548-.95a2.165,2.165,0,0,0,.115-1.688A.6.6,0,0,0,4.9,4.591a.082.082,0,0,0-.119-.009,1.761,1.761,0,0,0-.221.345c-.082.127-.165.254-.252.379a.112.112,0,0,1-.16,0c-.07-.1-.141-.2-.2-.3Q3.34,3.953,2.736,2.9c-.275-.475-.551-.949-.823-1.426a3.53,3.53,0,0,1-.155-.329A.128.128,0,0,1,1.841,1a1.5,1.5,0,0,1,.225-.03c.244,0,.488,0,.732,0,.717,0,1.433,0,2.15,0A2.025,2.025,0,0,0,5.991.68,2,2,0,0,0,6.6.137.1.1,0,0,0,6.606.054.1.1,0,0,0,6.537.01C6.4,0,6.263,0,6.126,0H3.29" transform="translate(0 2.67)" fill="#eb682c"/>
        <path id="Path_88" data-name="Path 88" d="M4.195,0H.536C.383,0,.231.009.079.016a.1.1,0,0,0-.07.141,6.741,6.741,0,0,0,.63,1.059,2.013,2.013,0,0,0,1.477.808c.013,0,.047-.049.042-.068a.732.732,0,0,0-.069-.166c-.1-.173-.2-.344-.291-.518a.754.754,0,0,1-.045-.129A.126.126,0,0,1,1.837,1c.106-.011.212-.025.317-.025.5,0,1.006,0,1.509,0H6.18c.107,0,.214,0,.32,0,.205.008.263.115.154.3-.34.6-.684,1.189-1.027,1.783-.129.225-.254.452-.389.673a2.372,2.372,0,0,0-.267,1.634,1.384,1.384,0,0,0,.067.218c.023.071.038.156.132.159.07,0,.1-.066.126-.118q.859-1.484,1.717-2.968.652-1.128,1.3-2.258c.053-.092.1-.188.146-.283A.089.089,0,0,0,8.4.019C8.265.012,8.128,0,7.991,0q-1.9,0-3.8,0" transform="translate(1.55 0)" fill="#eb682c"/>
      </g>
    </g>
  </g>
</svg>
