<svg xmlns="http://www.w3.org/2000/svg" xmlns:xlink="http://www.w3.org/1999/xlink" width="41.312" height="49.575" viewBox="0 0 41.312 49.575">
  <defs>
    <clipPath id="clip-path">
      <rect id="Rectangle_220" data-name="Rectangle 220" width="7.819" height="6.818" transform="translate(0 0)" fill="#eb682c"/>
    </clipPath>
  </defs>
  <g id="Group_11268" data-name="Group 11268" transform="translate(-631.494 -2314.572)">
    <g id="Group_2667" data-name="Group 2667" transform="translate(631.494 2314.572)">
      <g id="Group_2668" data-name="Group 2668">
        <path id="Path_108" data-name="Path 108" d="M41.312,6.905a6.976,6.976,0,0,1-.965,3.247c-.856,1.4-6.172,7.807-6.172,7.807S29.042,11.883,28,10.152a7.1,7.1,0,0,1-.966-3.247,7.143,7.143,0,0,1,14.277,0M34.176,4.269a2.49,2.49,0,1,0,2.5,2.492,2.5,2.5,0,0,0-2.5-2.492M30.724,18.923a18.842,18.842,0,0,0-2.932-6.059c-1.7-2.211-3.914-4.33-7.039-4.33A20.511,20.511,0,1,0,38.566,18.923ZM13.31,13.272a17.394,17.394,0,0,0-1.057,1.683,23.314,23.314,0,0,0-1.687,3.967H6.478a17.481,17.481,0,0,1,6.833-5.649M4.8,21.807H9.786a33.609,33.609,0,0,0-.718,5.766H3.293A17.193,17.193,0,0,1,4.8,21.807m.006,14.419A17.2,17.2,0,0,1,3.293,30.46H9.067a33.558,33.558,0,0,0,.721,5.766Zm1.676,2.879,4.086,0a23.212,23.212,0,0,0,1.684,3.955,18.16,18.16,0,0,0,1.057,1.686,17.434,17.434,0,0,1-6.827-5.643m12.671,7.2a.579.579,0,0,0-.071,0c-1.633-.614-3.2-2.211-4.468-4.651a19.992,19.992,0,0,1-1.088-2.54h5.626Zm0-10.076H12.7a31.683,31.683,0,0,1-.748-5.766h7.2Zm0-8.653h-7.2a31.861,31.861,0,0,1,.744-5.766h6.453Zm0-8.65H13.525a19.543,19.543,0,0,1,1.091-2.549c1.267-2.446,2.837-4.042,4.475-4.653l.063,0Zm17.28,2.884a17.173,17.173,0,0,1,1.512,5.766H32.172a33.611,33.611,0,0,0-.717-5.766ZM22.045,11.716c.035,0,.068,0,.1,0,1.634.611,3.2,2.207,4.471,4.653a20.12,20.12,0,0,1,1.093,2.551l-5.665,0Zm0,10.091h6.489a32.026,32.026,0,0,1,.748,5.766H22.045Zm0,8.653h7.238a32.107,32.107,0,0,1-.751,5.766H22.045Zm4.573,11.187c-1.264,2.44-2.834,4.037-4.468,4.651-.032,0-.068,0-.1,0v-7.2h5.66a20.261,20.261,0,0,1-1.088,2.539m1.3,3.1a17.808,17.808,0,0,0,1.057-1.688,23.276,23.276,0,0,0,1.689-3.953H34.75a17.469,17.469,0,0,1-6.828,5.641m8.506-8.525H31.452a33.466,33.466,0,0,0,.718-5.766h5.776a17.179,17.179,0,0,1-1.517,5.766" fill-rule="evenodd"/>
      </g>
    </g>
    <ellipse id="Ellipse_3" data-name="Ellipse 3" cx="4.969" cy="4.969" rx="4.969" ry="4.969" transform="translate(660.607 2316.94)" fill="#fff"/>
    <g id="Group_2669" data-name="Group 2669" transform="translate(669.486 2325.318) rotate(180)">
      <g id="Group_26" data-name="Group 26" transform="translate(0 0)" clip-path="url(#clip-path)">
        <path id="Path_86" data-name="Path 86" d="M4.6,0c-.1,0-.207-.007-.31,0A1.369,1.369,0,0,0,3.258.563a.065.065,0,0,0,0,.057A.064.064,0,0,0,3.3.651c.155,0,.31,0,.465.01a.576.576,0,0,1,.119.026.086.086,0,0,1,.041.077.231.231,0,0,1-.013.06c-.033.064-.069.127-.105.19L2.446,3.374c-.036.062-.073.125-.112.185a.1.1,0,0,1-.173,0c-.045-.069-.087-.14-.129-.212q-.4-.7-.807-1.394c-.052-.089-.1-.18-.163-.263A1.391,1.391,0,0,0,.2,1.123c-.065-.014-.138-.056-.2,0A.276.276,0,0,0,.066,1.3L1.832,4.355c.119.206.24.41.361.615a.062.062,0,0,0,.1,0c.034-.052.069-.1.1-.157q.365-.63.728-1.261Q4.061,1.933,5,.309C5.038.238,5.069.162,5.1.087,5.114.064,5.084.02,5.058.017A.991.991,0,0,0,4.936,0C4.823,0,4.709,0,4.6,0Z" transform="translate(2.714 1.809)" fill="#eb682c"/>
        <path id="Path_87" data-name="Path 87" d="M2.228,0H.245A1.639,1.639,0,0,0,.031.018.056.056,0,0,0,0,.063.4.4,0,0,0,.041.178c.143.251.288.5.432.752Q1.58,2.848,2.687,4.766c.046.08.1.155.153.23.014.019.038.016.056,0s.018-.012.023-.02c.125-.214.26-.423.371-.643a1.467,1.467,0,0,0,.078-1.143.407.407,0,0,0-.047-.079A.056.056,0,0,0,3.24,3.1a1.193,1.193,0,0,0-.149.234c-.056.086-.112.172-.17.257a.076.076,0,0,1-.108,0c-.047-.067-.1-.134-.137-.2q-.413-.71-.822-1.421C1.667,1.645,1.48,1.324,1.3,1a2.391,2.391,0,0,1-.1-.223.087.087,0,0,1,.056-.1A1.017,1.017,0,0,1,1.4.66c.165,0,.33,0,.5,0,.485,0,.971,0,1.456,0a1.372,1.372,0,0,0,.707-.2A1.358,1.358,0,0,0,4.472.093a.064.064,0,0,0,0-.056.065.065,0,0,0-.047-.03C4.335,0,4.243,0,4.15,0H2.228" transform="translate(0 1.809)" fill="#eb682c"/>
        <path id="Path_88" data-name="Path 88" d="M2.842,0H.363C.26,0,.157.006.054.011a.07.07,0,0,0-.048.1A4.567,4.567,0,0,0,.433.823a1.363,1.363,0,0,0,1,.547c.009,0,.032-.033.029-.046a.5.5,0,0,0-.047-.112C1.35,1.1,1.282.979,1.218.862a.511.511,0,0,1-.03-.087.085.085,0,0,1,.057-.1c.071-.008.143-.017.215-.017.341,0,.682,0,1.023,0h1.7c.072,0,.145,0,.217,0,.139.005.178.078.1.206-.23.4-.464.805-.7,1.208-.088.152-.172.306-.264.456A1.606,1.606,0,0,0,3.367,3.64a.937.937,0,0,0,.045.148c.015.048.026.106.09.108.048,0,.065-.045.085-.08L4.75,1.805q.442-.764.882-1.53c.036-.062.067-.127.1-.191a.06.06,0,0,0-.04-.072C5.6.008,5.506,0,5.413,0H2.842" transform="translate(1.05 0)" fill="#eb682c"/>
      </g>
    </g>
  </g>
</svg>
