<svg xmlns="http://www.w3.org/2000/svg" xmlns:xlink="http://www.w3.org/1999/xlink" width="56.444" height="45.373" viewBox="0 0 56.444 45.373">
  <defs>
    <clipPath id="clip-path">
      <rect id="Rectangle_220" data-name="Rectangle 220" width="9.247" height="8.063" transform="translate(0 0)" fill="#eb682c"/>
    </clipPath>
  </defs>
  <g id="Group_11269" data-name="Group 11269" transform="translate(-421.918 -2311.313)">
    <path id="Path_102" data-name="Path 102" d="M46.707,70.963c-.689-3.027-2.369-4.609-4.771-4.584-2.372.024-4.012,1.6-4.664,4.521h-24.2c-.73-3.006-2.342-4.516-4.762-4.5-2.4.018-4.016,1.56-4.678,4.548-.693,0-1.415.032-2.134-.008a1.378,1.378,0,0,1-1.43-1.474c-.028-3.316-.176-6.644.064-9.943.108-1.483.991-2.922,1.584-4.355.657-1.588,1.4-3.141,2.074-4.721a1.707,1.707,0,0,1,1.744-1.058c3.149-.018,6.3-.038,9.446-.04a1.514,1.514,0,0,1,1.5,1.541c-.009,3.609-.03,7.218-.035,10.828,0,1.61.451,2.052,2.077,2.053q15.122,0,30.244,0c1.872,0,2.279.405,2.279,2.27,0,1.061.014,2.123-.009,3.184-.026,1.2-.518,1.7-1.7,1.73-.86.023-1.721,0-2.633,0m-38.1-12.48c1.657,0,3.315-.037,4.97.015.839.027,1.2-.191,1.162-1.1-.065-1.82-.072-3.645-.009-5.464.03-.877-.377-1.1-1.112-1.1-2.276,0-4.553.017-6.83-.009A1.7,1.7,0,0,0,5.017,52.06c-.693,1.79-1.433,3.563-2.144,5.346-.376.941-.289,1.068.763,1.074,1.657.01,3.314,0,4.97,0" transform="translate(421.918 2282.014)"/>
    <path id="Path_103" data-name="Path 103" d="M75.769,47.753c0,1.614.037,3.066-.016,4.514A1.174,1.174,0,0,1,74.573,53.4a6.306,6.306,0,0,1-.7.015q-15.073,0-30.146,0c-1.766,0-2.052-.3-2.052-2.1q0-8.349,0-16.7c0-1.64.319-1.956,1.989-1.963,1.945-.007,3.89,0,5.844,0-1.331,15.169,15,23.478,26.254,15.1" transform="translate(397.172 2291.926)"/>
    <path id="Path_105" data-name="Path 105" d="M101.551,97.317a3.606,3.606,0,0,1-3.625,3.67,3.658,3.658,0,1,1,3.625-3.67" transform="translate(365.966 2255.699)"/>
    <path id="Path_106" data-name="Path 106" d="M15.191,100.984a3.658,3.658,0,1,1,3.687-3.613,3.612,3.612,0,0,1-3.687,3.613" transform="translate(415.039 2255.701)"/>
    <g id="Group_2665" data-name="Group 2665" transform="translate(445.489 2335.213) rotate(60)">
      <g id="Group_26" data-name="Group 26" transform="translate(0 0)" clip-path="url(#clip-path)">
        <path id="Path_86" data-name="Path 86" d="M5.435,0C5.312,0,5.19,0,5.068.006a1.619,1.619,0,0,0-1.215.66.077.077,0,0,0,0,.067A.076.076,0,0,0,3.906.77c.183.006.366.006.549.012A.682.682,0,0,1,4.6.812.1.1,0,0,1,4.645.9.273.273,0,0,1,4.63.973c-.039.076-.082.15-.124.224L2.893,3.99c-.043.074-.086.148-.133.219a.113.113,0,0,1-.2,0c-.053-.082-.1-.166-.152-.251q-.478-.824-.954-1.649C1.387,2.206,1.327,2.1,1.256,2A1.644,1.644,0,0,0,.242,1.328C.166,1.311.079,1.262,0,1.333a.326.326,0,0,0,.077.2Q1.122,3.342,2.167,5.151c.141.243.284.485.426.727a.073.073,0,0,0,.122,0c.04-.061.081-.122.118-.185q.431-.745.861-1.491Q4.8,2.286,5.91.366C5.958.282,5.995.191,6.035.1,6.047.076,6.013.024,5.982.02A1.172,1.172,0,0,0,5.838,0c-.134,0-.269,0-.4,0Z" transform="translate(3.21 2.139)" fill="#eb682c"/>
        <path id="Path_87" data-name="Path 87" d="M2.635,0Q1.463,0,.29,0a1.939,1.939,0,0,0-.254.02A.066.066,0,0,0,0,.075.473.473,0,0,0,.049.21C.218.507.389.8.56,1.1Q1.869,3.368,3.178,5.636c.054.094.118.183.181.272.016.023.044.019.066,0s.021-.014.027-.024c.148-.253.307-.5.439-.761a1.735,1.735,0,0,0,.092-1.352.481.481,0,0,0-.055-.094.066.066,0,0,0-.1-.007,1.411,1.411,0,0,0-.177.276c-.066.1-.133.2-.2.3a.09.09,0,0,1-.128,0c-.056-.079-.113-.159-.162-.242q-.488-.839-.972-1.68c-.22-.381-.441-.76-.659-1.142A2.828,2.828,0,0,1,1.409.92.1.1,0,0,1,1.475.8a1.2,1.2,0,0,1,.18-.024c.2,0,.391,0,.586,0,.574,0,1.148,0,1.722,0A1.622,1.622,0,0,0,4.8.545,1.606,1.606,0,0,0,5.288.109a.076.076,0,0,0,0-.067A.077.077,0,0,0,5.237.008C5.127,0,5.017,0,4.907,0H2.635" transform="translate(0 2.139)" fill="#eb682c"/>
        <path id="Path_88" data-name="Path 88" d="M3.361,0H.429C.307,0,.185.007.063.013A.082.082,0,0,0,.007.126a5.4,5.4,0,0,0,.5.848,1.612,1.612,0,0,0,1.183.647c.011,0,.038-.04.034-.055a.586.586,0,0,0-.055-.133C1.6,1.3,1.516,1.158,1.44,1.019A.6.6,0,0,1,1.4.916.1.1,0,0,1,1.472.8c.085-.009.169-.02.254-.02.4,0,.806,0,1.209,0H4.951c.085,0,.171,0,.256,0,.164.006.21.092.124.244-.272.477-.548.952-.823,1.428-.1.18-.2.362-.312.539a1.9,1.9,0,0,0-.214,1.309,1.109,1.109,0,0,0,.054.175c.018.057.031.125.106.128.056,0,.076-.053.1-.095L5.618,2.135q.522-.9,1.043-1.809C6.7.253,6.74.176,6.778.1A.071.071,0,0,0,6.73.015C6.621.009,6.511,0,6.4,0H3.361" transform="translate(1.242 0)" fill="#eb682c"/>
      </g>
    </g>
    <path id="Path_104" data-name="Path 104" d="M78.441,0A15.421,15.421,0,1,1,62.967,15.389,15.429,15.429,0,0,1,78.441,0M91.784,15.506A13.394,13.394,0,1,0,78.4,28.842,13.433,13.433,0,0,0,91.784,15.506" transform="translate(384.533 2311.313)"/>
    <path id="Path_107" data-name="Path 107" d="M88.424,8.378H90.4c.016.356.045.7.046,1.053,0,2.852-.018,5.7.022,8.556a3.34,3.34,0,0,0,.424,1.454,1.731,1.731,0,1,1-3.064,1.575,2.764,2.764,0,0,0-1-1.095c-1.69-.976-3.421-1.879-5.241-2.864l.936-1.784,5.9,3.163Z" transform="translate(373.476 2306.34)"/>
  </g>
</svg>
