<svg id="Group_2689" data-name="Group 2689" xmlns="http://www.w3.org/2000/svg" xmlns:xlink="http://www.w3.org/1999/xlink" width="21.906" height="21.861" viewBox="0 0 21.906 21.861">
  <defs>
    <clipPath id="clip-path">
      <rect id="Rectangle_259" data-name="Rectangle 259" width="21.906" height="21.861" fill="#e9682c"/>
    </clipPath>
  </defs>
  <g id="Group_2688" data-name="Group 2688" clip-path="url(#clip-path)">
    <path id="Path_222" data-name="Path 222" d="M3.7,0A8.406,8.406,0,0,1,4.847.776c1,.943,1.972,1.925,2.95,2.895a1.777,1.777,0,0,1,.031,2.8c-.52.532-1.067,1.037-1.6,1.548a16.171,16.171,0,0,0,7.614,7.649c.5-.51,1-1.035,1.515-1.55a1.77,1.77,0,0,1,2.8-.023c.911.9,1.849,1.775,2.721,2.711A11.686,11.686,0,0,1,21.906,18.3v.487a3.432,3.432,0,0,1-.355.788A5.354,5.354,0,0,1,16.86,21.85a13.3,13.3,0,0,1-5.819-1.862A28.939,28.939,0,0,1,2.8,12.527,12.979,12.979,0,0,1,.436,8.208C.242,7.563.142,6.89,0,6.23V4.672c.032-.157.067-.313.094-.47A5.412,5.412,0,0,1,2.921,0Z" transform="translate(0 0.001)" fill="#e9682c"/>
  </g>
</svg>
