<svg id="Group_11220" data-name="Group 11220" xmlns="http://www.w3.org/2000/svg" xmlns:xlink="http://www.w3.org/1999/xlink" width="9.092" height="16.821" viewBox="0 0 9.092 16.821">
  <defs>
    <clipPath id="clip-path">
      <rect id="Rectangle_6196" data-name="Rectangle 6196" width="9.092" height="16.82" fill="#eb682c"/>
    </clipPath>
  </defs>
  <g id="Group_11219" data-name="Group 11219" clip-path="url(#clip-path)">
    <path id="Path_13880" data-name="Path 13880" d="M2.535,9.5H.447C.116,9.5,0,9.379,0,9.048Q0,7.772,0,6.5c0-.323.128-.452.449-.453H2.535V5.89q0-.848,0-1.7A4.6,4.6,0,0,1,3.11,1.827,3.54,3.54,0,0,1,5.42.137,5.313,5.313,0,0,1,6.746,0c.634,0,1.268,0,1.9,0,.313,0,.443.129.443.443q0,1.186,0,2.371c0,.317-.124.436-.443.44-.56.006-1.121.011-1.681.024a1.2,1.2,0,0,0-.335.068.778.778,0,0,0-.536.8c-.017.624,0,1.249,0,1.9H8.524c.34,0,.461.123.461.465q0,1.268,0,2.537c0,.337-.11.449-.443.449H6.085c0,.07,0,.128,0,.186q0,3.329,0,6.659c0,.362-.117.48-.475.48H2.964c-.3,0-.429-.129-.429-.427q0-3.35,0-6.7V9.5" transform="translate(0 0)" fill="#eb682c"/>
  </g>
</svg>
