<svg id="Group_11224" data-name="Group 11224" xmlns="http://www.w3.org/2000/svg" xmlns:xlink="http://www.w3.org/1999/xlink" width="16.818" height="16.821" viewBox="0 0 16.818 16.821">
  <defs>
    <clipPath id="clip-path">
      <rect id="Rectangle_6198" data-name="Rectangle 6198" width="16.818" height="16.82" fill="#eb682c"/>
    </clipPath>
  </defs>
  <g id="Group_11223" data-name="Group 11223" clip-path="url(#clip-path)">
    <path id="Path_13882" data-name="Path 13882" d="M16.808,8.41c0,1.821.016,3.641,0,5.462A3.023,3.023,0,0,1,13.894,16.8c-3.462.026-6.924.015-10.386.018q-.291,0-.582-.011a3.062,3.062,0,0,1-2.91-2.937C-.009,12.709,0,11.545,0,10.381,0,7.9-.006,5.426.019,2.949A3.042,3.042,0,0,1,2.926.013C3.463,0,4,0,4.537,0c3.119,0,6.238-.008,9.357.016A3.038,3.038,0,0,1,16.8,2.926c.021.917.011,1.835.012,2.753s0,1.821,0,2.731h-.009m-2.877-.126a5.523,5.523,0,1,0-5.266,5.645,5.538,5.538,0,0,0,5.266-5.645m.18-4.272A1.3,1.3,0,1,0,12.818,2.7a1.3,1.3,0,0,0,1.294,1.314" transform="translate(0 0)" fill="#eb682c"/>
    <path id="Path_13883" data-name="Path 13883" d="M119.5,116.3a3.2,3.2,0,1,1-3.192,3.219A3.213,3.213,0,0,1,119.5,116.3" transform="translate(-111.096 -111.095)" fill="#eb682c"/>
  </g>
</svg>
