<svg id="Group_11222" data-name="Group 11222" xmlns="http://www.w3.org/2000/svg" xmlns:xlink="http://www.w3.org/1999/xlink" width="21.409" height="15.16" viewBox="0 0 21.409 15.16">
  <defs>
    <clipPath id="clip-path">
      <rect id="Rectangle_6197" data-name="Rectangle 6197" width="21.409" height="15.16" fill="#eb682c"/>
    </clipPath>
  </defs>
  <g id="Group_11221" data-name="Group 11221" clip-path="url(#clip-path)">
    <path id="Path_13881" data-name="Path 13881" d="M10.407,0c2.6.074,4.877.13,7.152.209A8,8,0,0,1,19.052.4a2.449,2.449,0,0,1,1.764,1.473,5.664,5.664,0,0,1,.472,2.1c.062,1.782.147,3.565.114,5.346a17.41,17.41,0,0,1-.387,3.393,2.614,2.614,0,0,1-2.738,2.214c-1.664.076-3.328.144-4.993.189-1.363.036-2.727.053-4.09.041-1.468-.013-2.937-.041-4.4-.116a17.041,17.041,0,0,1-2.545-.312A2.262,2.262,0,0,1,.6,13.267a7.717,7.717,0,0,1-.482-2.522A40.362,40.362,0,0,1,.231,3.33,5.514,5.514,0,0,1,.684,1.767,2.564,2.564,0,0,1,3.089.273C5.635.154,8.183.08,10.407,0M8.462,10.614,14.225,7.5l-5.763-3Z" transform="translate(0)" fill="#eb682c"/>
  </g>
</svg>
